<?xml version="1.0" encoding="UTF-8" standalone="no"?>
<!-- Generator: Adobe Illustrator 22.1.0, SVG Export Plug-In . SVG Version: 6.00 Build 0)  -->

<svg
   version="1.1"
   id="Layer_1"
   x="0px"
   y="0px"
   viewBox="0 0 672 723"
   style="enable-background:new 0 0 672 723;"
   xml:space="preserve"
   sodipodi:docname="logo2 - FINAL.svg"
   inkscape:version="1.2.1 (9c6d41e410, 2022-07-14)"
   inkscape:export-filename="logo2 - FINAL.png"
   inkscape:export-xdpi="96"
   inkscape:export-ydpi="96"
   xmlns:inkscape="http://www.inkscape.org/namespaces/inkscape"
   xmlns:sodipodi="http://sodipodi.sourceforge.net/DTD/sodipodi-0.dtd"
   xmlns:xlink="http://www.w3.org/1999/xlink"
   xmlns="http://www.w3.org/2000/svg"
   xmlns:svg="http://www.w3.org/2000/svg"><defs
   id="defs13"><inkscape:path-effect
     effect="bspline"
     id="path-effect848"
     is_visible="true"
     lpeversion="1"
     weight="33.333333"
     steps="2"
     helper_size="0"
     apply_no_weight="true"
     apply_with_weight="true"
     only_selected="false" /><inkscape:path-effect
     effect="bspline"
     id="path-effect780"
     is_visible="true"
     lpeversion="1"
     weight="33.333333"
     steps="2"
     helper_size="0"
     apply_no_weight="true"
     apply_with_weight="true"
     only_selected="false" /><linearGradient
     inkscape:collect="always"
     id="linearGradient6999"><stop
       style="stop-color:#fc6a04;stop-opacity:1;"
       offset="0.03987241"
       id="stop6995" /><stop
       style="stop-color:#fdb905;stop-opacity:1;"
       offset="0.88038278"
       id="stop6997" /></linearGradient><inkscape:path-effect
     effect="bspline"
     id="path-effect2107"
     is_visible="true"
     lpeversion="1"
     weight="33.333333"
     steps="2"
     helper_size="0"
     apply_no_weight="true"
     apply_with_weight="true"
     only_selected="false" /><linearGradient
     inkscape:collect="always"
     xlink:href="#linearGradient6999"
     id="linearGradient7001"
     x1="373.07913"
     y1="424.06766"
     x2="381.20941"
     y2="223.47659"
     gradientUnits="userSpaceOnUse" /><inkscape:path-effect
     effect="bspline"
     id="path-effect368"
     is_visible="true"
     lpeversion="1"
     weight="33.333333"
     steps="2"
     helper_size="0"
     apply_no_weight="true"
     apply_with_weight="true"
     only_selected="false" /><inkscape:path-effect
     effect="bspline"
     id="path-effect368-3"
     is_visible="true"
     lpeversion="1"
     weight="33.333333"
     steps="2"
     helper_size="0"
     apply_no_weight="true"
     apply_with_weight="true"
     only_selected="false" /><inkscape:path-effect
     effect="bspline"
     id="path-effect848-6"
     is_visible="true"
     lpeversion="1"
     weight="33.333333"
     steps="2"
     helper_size="0"
     apply_no_weight="true"
     apply_with_weight="true"
     only_selected="false" /></defs><sodipodi:namedview
   id="namedview11"
   pagecolor="#ffffff"
   bordercolor="#000000"
   borderopacity="0.25"
   inkscape:showpageshadow="2"
   inkscape:pageopacity="0.0"
   inkscape:pagecheckerboard="0"
   inkscape:deskcolor="#d1d1d1"
   showgrid="false"
   inkscape:zoom="0.5"
   inkscape:cx="291"
   inkscape:cy="336"
   inkscape:window-width="1920"
   inkscape:window-height="1009"
   inkscape:window-x="-8"
   inkscape:window-y="-8"
   inkscape:window-maximized="1"
   inkscape:current-layer="Layer_1"
   showguides="true"><sodipodi:guide
     position="1250,825"
     orientation="1,0"
     id="guide246"
     inkscape:locked="false" /><sodipodi:guide
     position="1172,797"
     orientation="1,0"
     id="guide302"
     inkscape:locked="false" /></sodipodi:namedview>
<style
   type="text/css"
   id="style2">
	.st0{fill:#1d5df3;}
	.st1{fill:#e3982b;}
</style>
<path
   id="path4"
   style="display:inline;fill:#3e75f5;fill-opacity:1"
   class="st0"
   d="m 373.80078,27.341797 c -59.19988,0 -112.50049,12.701222 -159.90039,38.201172 -47.3999,25.499948 -84.70084,60.899691 -111.80078,106.099611 -27.099948,45.1999 -40.699219,96.29893 -40.699219,153.29883 0,57.09988 13.599271,108.20047 40.699219,153.40039 27.09994,45.2999 64.40088,80.59965 111.80078,106.09961 47.3999,225.49954 100.40012,38.30078 159,38.30078 49.8999,0 95.0993,-8.80082 135.69922,-26.30078 35.04666,-15.19265 65.16426,-36.28598 90.375,-63.25196 1.35936,-1.58983 2.76618,-3.18517 3.85742,-4.45507 2.70706,-3.15028 4.0667,-4.95597 4.5225,-6.58554 0.4558,-1.62956 0.0124,-3.08337 -0.61234,-4.47696 -0.62477,-1.3936 -1.7174,-2.59203 -14.06055,-14.03126 -12.34315,-11.43922 -35.93735,-33.11883 -48.4043,-44.29882 -12.46694,-11.18 -13.81352,-11.86404 -15.20703,-12.25782 -1.39351,-0.39377 -2.61804,-0.42067 -4.07052,-0.10535 -1.45248,0.31532 -2.9205,1.09103 -4.71189,2.29325 -1.79139,1.20222 -3.92394,2.82872 -6.49219,5.01029 -1.5777,1.34016 -3.57145,3.12459 -5.48419,4.78006 -35.65476,33.51808 -78.46589,50.17996 -127.91113,50.17996 -35.69992,0 -67.40045,-7.80043 -95.40039,-23.40039 -27.99994,-15.69998 -49.80043,-37.40045 -65.40039,-65.40039 -15.59998,-27.99996 -23.40039,-59.79852 -23.40039,-95.39844 0,-35.59994 7.80041,-67.40045 23.40039,-95.40039 15.69996,-27.99994 37.40045,-49.80043 65.40039,-65.40039 27.99994,-15.59998 59.80047,-23.40039 95.40039,-23.40039 45.90511,0 85.93977,14.35779 120.01563,42.98828 0.47332,0.38847 0.92064,0.72007 1.39648,1.11914 3.70483,3.1071 7.43362,6.47961 10.75977,9.26758 3.32614,2.78796 6.25039,4.99137 8.5957,6.56445 2.34532,1.57308 4.1114,2.51554 5.97851,2.4375 1.86714,-0.078 3.84368,-1.18178 7.08008,-3.79297 3.21217,-2.59162 7.79233,-6.7865 19.18164,-17.30664 l 0.4668,-0.42969 c 11.59974,-10.71569 30.01322,-27.76212 39.97266,-37.25781 10.03955,-9.57206 11.46203,-11.44755 12.08789,-13.67578 0.62586,-2.22823 0.4588,-4.81505 -1.10547,-7.48242 -0.73763,-1.25782 -1.81595,-2.54327 -2.96875,-3.89258 C 576.11041,91.303008 545.22432,69.329489 509.09961,53.642578 468.79969,36.142614 423.70068,27.341797 373.80078,27.341797 Z"
   sodipodi:nodetypes="ssssccsccssssssssscscsscsscsssssccssscss" /><path
   id="path4-4"
   style="display:inline;opacity:1;fill:#1d5df3;fill-opacity:1"
   class="st0"
   d="m 285.48828,163.93555 c -1.43367,0.29124 -5.80631,1.89444 -9.23047,3.43164 -4.33999,1.98192 -8.50488,3.46882 -11.85937,5.27343 -47.39959,25.49982 -84.6991,60.90006 -111.79883,106.09961 -27.09973,45.19964 -40.70117,96.29937 -40.70117,153.29883 0,19.42846 3.91609,49.52393 7.98047,72.11328 1.22202,1.53446 2.43853,3.05228 3.66211,4.58008 -0.004,0.22487 0.0397,0.45136 0.0234,0.67578 2.77657,3.50951 5.64931,6.92448 8.57813,10.28516 l 0.004,0.004 c 22.68668,26.03084 49.92119,47.61892 81.75391,64.74414 47.3997,225.49862 100.40036,38.30078 159,38.30078 49.8997,0 95.09946,-8.8009 135.69922,-26.30078 37.40312,-16.2142 69.19061,-39.15138 95.39062,-68.77539 1.90101,-2.32798 2.95659,-3.9342 3.34375,-5.31836 0.45581,-1.62957 0.2986,-3.20602 -0.32617,-4.59961 -0.62477,-1.3936 -1.71742,-2.59204 -14.06054,-14.03125 -12.34314,-11.43922 -35.93737,-33.11884 -48.4043,-44.29883 -12.46694,-11.17999 -13.81352,-11.86404 -15.20703,-12.25781 -1.39351,-0.39377 -2.85611,-0.50477 -4.3086,-0.18946 -1.45247,0.31532 -2.9137,1.0595 -4.70507,2.26172 -1.79139,1.20222 -3.92395,2.86726 -6.49219,5.04883 -2.56825,2.18157 -5.50866,4.95856 -9.03906,7.77344 -0.27667,0.22059 -0.59642,0.47924 -0.89454,0.72461 -34.79421,30.99567 -75.94613,46.46289 -123.49609,46.46289 -35.69976,0 -67.40057,-7.80051 -95.40039,-23.40039 -27.99982,-15.69994 -49.80051,-37.40057 -65.40039,-65.40039 -10.37623,-18.62402 -17.22261,-38.96716 -20.69727,-60.95313 -0.005,-0.031 -0.009,-0.0627 -0.0137,-0.0937 -0.70256,-4.45767 -1.23968,-8.99548 -1.67383,-13.58398 -0.14965,-1.64239 -0.31039,-3.27942 -0.42382,-4.93946 -0.11424,-1.58983 -0.20498,-3.19043 -0.28516,-4.79687 -0.17097,-3.64349 -0.30664,-7.30445 -0.30664,-11.03125 0,-35.59985 7.80044,-67.40054 23.40039,-95.40039 1.26185,-2.25045 2.62236,-4.39916 3.9668,-6.56446 15.08594,-23.63404 38.62412,-45.0921 61.92187,-59.14257 z"
   sodipodi:nodetypes="cccssccccccsccssssssssscscscccccscccc" />
<circle
   class="st1"
   cx="375.39999"
   cy="322.89999"
   r="100"
   id="circle8"
   style="display:inline;fill-opacity:1;fill:url(#linearGradient7001)" />
</svg>
